HIERARCHY
ROOT Hips
{
	OFFSET -0.001795 -0.223333 0.028219
	CHANNELS 6 Xposition Yposition Zposition Zrotation Yrotation Xrotation 
	JOINT LeftUpLeg
	{
		OFFSET 0.069520 -0.091406 -0.006815
		CHANNELS 3 Zrotation Yrotation Xrotation
		JOINT LeftLeg
		{
			OFFSET 0.034277 -0.375199 -0.004496
			CHANNELS 3 Zrotation Yrotation Xrotation
			JOINT LeftFoot
			{
				OFFSET -0.013596 -0.397961 -0.043693
				CHANNELS 3 Zrotation Yrotation Xrotation
				JOINT LeftToe
				{
					OFFSET 0.026358 -0.055791 0.119288
					CHANNELS 3 Zrotation Yrotation Xrotation
					End Site
					{
						OFFSET 0.000000 0.000000 0.000000
					}
				}
			}
		}
	}
	JOINT RightUpLeg
	{
		OFFSET -0.067670 -0.090522 -0.004320
		CHANNELS 3 Zrotation Yrotation Xrotation
		JOINT RightLeg
		{
			OFFSET -0.038290 -0.382569 -0.008850
			CHANNELS 3 Zrotation Yrotation Xrotation
			JOINT RightFoot
			{
				OFFSET 0.015774 -0.398415 -0.042312
				CHANNELS 3 Zrotation Yrotation Xrotation
				JOINT RightToe
				{
					OFFSET -0.025372 -0.048144 0.123348
					CHANNELS 3 Zrotation Yrotation Xrotation
					End Site
					{
						OFFSET 0.000000 0.000000 0.000000
					}
				}
			}
		}
	}
	JOINT Spine
	{
		OFFSET -0.002533 0.108963 -0.026696
		CHANNELS 3 Zrotation Yrotation Xrotation
		JOINT Spine1
		{
			OFFSET 0.005487 0.135180 0.001092
			CHANNELS 3 Zrotation Yrotation Xrotation
			JOINT Spine2
			{
				OFFSET 0.001457 0.052922 0.025425
				CHANNELS 3 Zrotation Yrotation Xrotation
				JOINT Neck
				{
					OFFSET -0.002778 0.213870 -0.042857
					CHANNELS 3 Zrotation Yrotation Xrotation
					JOINT Head
					{
						OFFSET 0.005152 0.064970 0.051349
						CHANNELS 3 Zrotation Yrotation Xrotation
						End Site
						{
							OFFSET 0.000000 0.000000 0.000000
						}
					}
				}
				JOINT LeftShoulder
				{
					OFFSET 0.078845 0.121749 -0.034090
					CHANNELS 3 Zrotation Yrotation Xrotation
					JOINT LeftArm
					{
						OFFSET 0.090977 0.030469 -0.008868
						CHANNELS 3 Zrotation Yrotation Xrotation
						JOINT LeftForeArm
						{
							OFFSET 0.259612 -0.012772 -0.027456
							CHANNELS 3 Zrotation Yrotation Xrotation
							JOINT LeftHand
							{
								OFFSET 0.249234 0.008986 -0.001171
								CHANNELS 3 Zrotation Yrotation Xrotation
								End Site
								{
									OFFSET 0.000000 0.000000 0.000000
								}
							}
						}
					}
				}
				JOINT RightShoulder
				{
					OFFSET -0.081759 0.118833 -0.038615
					CHANNELS 3 Zrotation Yrotation Xrotation
					JOINT RightArm
					{
						OFFSET -0.096012 0.032551 -0.009143
						CHANNELS 3 Zrotation Yrotation Xrotation
						JOINT RightForeArm
						{
							OFFSET -0.253742 -0.013329 -0.021401
							CHANNELS 3 Zrotation Yrotation Xrotation
							JOINT RightHand
							{
								OFFSET -0.255298 0.007772 -0.005559
								CHANNELS 3 Zrotation Yrotation Xrotation
								End Site
								{
									OFFSET 0.000000 0.000000 0.000000
								}
							}
						}
					}
				}
			}
		}
	}
}
MOTION
Frames: 9
Frame Time: 0.050000
0.006528 0.958399 -0.052174 -2.240379 5.027840 8.933464 5.992490 -0.374868 -2.805692 2.767911 0.390040 -12.333997 -0.073932 7.346011 19.318981 0.000000 0.000000 0.000000 -4.046142 0.726508 -9.138464 -2.290088 0.108184 -2.457695 2.911293 -1.273017 19.502338 0.000000 0.000000 0.000000 -0.539905 0.056654 -1.129233 2.721144 -0.948358 -4.832949 3.714447 -7.006565 -6.088903 -10.638337 7.118468 -10.884378 0.000000 0.000000 0.000000 0.003181 -1.087940 0.406238 -22.719882 -47.958810 6.467258 52.923489 -7.533443 -2.053849 0.000000 0.000000 0.000000 5.923724 3.116161 0.143695 61.143689 4.338685 -2.994685 3.471516 20.180218 0.903260 0.000000 0.000000 0.000000 
0.006600 0.959232 -0.052985 -2.138988 4.739366 9.085871 5.871737 -0.370509 -2.791848 2.721849 0.405905 -12.615071 -0.010645 7.496151 19.716079 0.000000 0.000000 0.000000 -3.757232 0.770138 -9.550590 -2.769246 0.154324 -2.367734 2.644898 -1.940509 19.997159 0.000000 0.000000 0.000000 -0.698857 0.056184 -0.954538 2.860027 -1.022095 -4.638191 4.615868 -7.943496 -6.349061 -11.695169 7.667529 -11.468713 0.000000 0.000000 0.000000 2.086129 -2.512121 0.956346 -12.708087 -52.481476 3.552307 50.862876 6.143169 4.117098 0.000000 0.000000 0.000000 5.444743 3.533232 0.261252 61.773371 4.973634 -2.837018 3.210025 21.795604 0.852437 0.000000 0.000000 0.000000 
0.006839 0.959790 -0.053683 -2.146451 4.401404 9.193569 5.617970 -0.360731 -2.751055 3.094957 0.424522 -12.837101 0.106914 7.683450 20.000912 0.000000 0.000000 0.000000 -3.553324 0.793903 -9.694721 -2.981853 0.176705 -2.283498 2.522832 -2.097357 19.633898 0.000000 0.000000 0.000000 -0.786382 0.065695 -1.144865 3.390930 -1.259955 -4.491569 4.732720 -7.863597 -6.520516 -12.390486 8.004655 -12.211294 0.000000 0.000000 0.000000 3.596372 -3.461845 1.285539 -4.486277 -56.085350 0.384216 47.825962 13.624128 6.793414 0.000000 0.000000 0.000000 5.392954 3.422553 0.219535 62.010417 5.445347 -2.619499 2.859293 24.201264 0.845388 0.000000 0.000000 0.000000 
0.007286 0.959649 -0.054673 -2.009678 4.310014 9.099134 5.504679 -0.363747 -2.923767 2.959335 0.402182 -12.417232 0.176781 7.723229 19.832426 0.000000 0.000000 0.000000 -3.514317 0.809440 -9.896637 -2.992341 0.227923 -1.516278 1.918496 -2.818068 18.626282 0.000000 0.000000 0.000000 -0.674633 0.061140 -1.098587 3.511939 -1.337120 -4.151251 4.693022 -7.864797 -6.367301 -11.858381 7.617808 -12.824723 0.000000 0.000000 0.000000 4.619961 -3.706566 1.366354 0.297937 -59.004452 -1.784952 48.026244 16.001064 7.760017 0.000000 0.000000 0.000000 5.616837 4.024380 0.410321 62.406385 6.067013 -2.330376 3.224571 26.547944 0.984251 0.000000 0.000000 0.000000 
0.007637 0.959219 -0.056225 -1.927236 4.415041 8.890403 5.551199 -0.358994 -2.821037 2.679254 0.397958 -12.406658 0.128860 7.637716 19.699612 0.000000 0.000000 0.000000 -3.720945 0.778812 -9.620643 -2.729428 0.212035 -1.386543 1.716681 -2.891358 17.808832 0.000000 0.000000 0.000000 -0.710262 0.048614 -0.704473 4.021283 -1.598323 -3.604703 4.575151 -7.574856 -6.965017 -12.060862 7.756178 -12.567423 0.000000 0.000000 0.000000 5.031632 -4.882110 1.754102 2.834280 -60.345339 -3.114296 51.500019 12.724052 6.908443 0.000000 0.000000 0.000000 6.414079 4.431932 0.468310 62.146041 6.417228 -1.981548 4.953138 30.507801 1.534032 0.000000 0.000000 0.000000 
0.008020 0.958106 -0.058288 -1.991755 4.620924 9.233133 5.614508 -0.401987 -3.657261 2.695898 0.373653 -11.917428 0.149625 7.588752 19.291743 0.000000 0.000000 0.000000 -3.752622 0.824178 -10.365665 -2.452244 0.216172 -0.885332 1.284337 -3.506286 17.495937 0.000000 0.000000 0.000000 -0.597119 0.037324 -0.467167 4.228035 -1.681512 -3.643040 4.466314 -7.326729 -7.218401 -10.920642 6.982407 -13.528601 0.000000 0.000000 0.000000 5.358987 -5.379670 1.926342 2.166193 -62.579650 -2.913272 57.864092 7.046533 5.028080 0.000000 0.000000 0.000000 6.720992 5.337951 0.810312 62.252489 7.441725 -1.350149 6.562911 34.182445 2.179373 0.000000 0.000000 0.000000 
0.008324 0.957875 -0.060518 -1.845428 4.762685 9.258564 5.782972 -0.420864 -4.010083 2.093533 0.357680 -11.640515 0.098930 7.506057 19.176627 0.000000 0.000000 0.000000 -4.008543 0.824722 -10.654762 -2.281158 0.233601 -0.300748 1.111705 -3.571392 16.783944 0.000000 0.000000 0.000000 -0.679838 0.021832 0.074455 4.686626 -1.891058 -3.506238 4.101525 -6.573154 -7.721286 -10.194275 6.616810 -12.953967 0.000000 0.000000 0.000000 4.791848 -6.400420 2.279642 -0.217567 -64.013173 -1.845534 63.740565 -0.959852 0.942488 0.000000 0.000000 0.000000 7.884117 6.223524 1.108367 61.544573 8.291940 -0.659665 7.226589 38.028720 2.710113 0.000000 0.000000 0.000000 
0.008606 0.957404 -0.062291 -1.773298 5.060349 9.576872 5.849608 -0.449729 -4.523055 1.849394 0.355720 -11.657263 -0.025747 7.362139 19.125731 0.000000 0.000000 0.000000 -4.029357 0.858937 -11.299601 -2.219086 0.252779 0.137407 0.617794 -4.348654 16.651296 0.000000 0.000000 0.000000 -0.786344 0.025777 0.101325 5.018813 -2.046394 -3.365412 3.815650 -6.256691 -7.790770 -9.126653 5.935795 -14.214004 0.000000 0.000000 0.000000 4.530485 -7.105113 2.517968 -2.965028 -65.637609 -0.413883 69.165038 -6.656195 -2.697857 0.000000 0.000000 0.000000 8.095176 7.333588 1.608176 61.760234 10.211102 0.424698 6.434608 41.082448 2.714120 0.000000 0.000000 0.000000 
0.008805 0.957442 -0.063203 -1.578060 5.269706 9.838996 5.866382 -0.471963 -4.927098 1.450840 0.350819 -11.607789 -0.142886 7.245982 19.188581 0.000000 0.000000 0.000000 -4.239982 0.849381 -11.393267 -2.285038 0.269387 0.291030 0.587740 -4.112151 15.753633 0.000000 0.000000 0.000000 -0.764310 0.033913 -0.161185 4.930133 -2.036650 -3.033160 3.759250 -5.820822 -7.883919 -8.670953 5.700637 -14.160826 0.000000 0.000000 0.000000 3.539151 -8.031692 2.830317 -7.059540 -67.071301 1.917930 73.616967 -11.878326 -6.722168 0.000000 0.000000 0.000000 8.406084 8.489282 2.129799 61.457472 12.242558 1.587450 4.030000 42.110955 1.980964 0.000000 0.000000 0.000000 
